<svg width="175" height="41" viewBox="0 0 175 41" fill="none" xmlns="http://www.w3.org/2000/svg">
<path d="M4.36 8.436V33.084C4.36 35.788 6.89067 37.14 11.952 37.14C17.048 37.14 19.596 35.788 19.596 33.084V29.34C19.596 28.5427 20.2893 28.144 21.676 28.144C23.0627 28.144 23.756 28.5427 23.756 29.34V32.564C23.756 38.0413 19.8907 40.78 12.16 40.78C8.55467 40.78 5.66 40.1387 3.476 38.856C1.292 37.5387 0.2 35.4413 0.2 32.564V8.956C0.2 6.07867 1.292 3.99867 3.476 2.716C5.66 1.39866 8.55467 0.739997 12.16 0.739997C19.8907 0.739997 23.756 3.47866 23.756 8.956V12.18C23.756 12.9773 23.0627 13.376 21.676 13.376C20.2893 13.376 19.596 12.9773 19.596 12.18V8.436C19.596 5.732 17.048 4.38 11.952 4.38C6.89067 4.38 4.36 5.732 4.36 8.436ZM57.7023 8.956V39.064C57.7023 39.8613 57.0089 40.26 55.6223 40.26C54.2356 40.26 53.5423 39.8613 53.5423 39.064V24.972H37.7863V39.064C37.7863 39.8613 37.0929 40.26 35.7063 40.26C34.3196 40.26 33.6263 39.8613 33.6263 39.064V8.956C33.6263 7.01466 34.1983 5.42 35.3423 4.172C36.4863 2.88933 37.9423 2.00533 39.7103 1.52C41.4783 0.999998 43.5583 0.739997 45.9503 0.739997C53.7849 0.739997 57.7023 3.47866 57.7023 8.956ZM37.7863 8.436V21.332H53.5423V8.436C53.5423 5.732 50.9076 4.38 45.6383 4.38C40.4036 4.38 37.7863 5.732 37.7863 8.436ZM77.3383 36.36H85.7623C86.4557 36.36 86.8023 36.9667 86.8023 38.18C86.8023 39.3933 86.4557 40 85.7623 40H77.3383C74.357 40 72.2423 39.2893 70.9943 37.868C69.7463 36.412 69.1223 34.072 69.1223 30.848V2.456C69.1223 1.65866 69.8157 1.26 71.2023 1.26C72.589 1.26 73.2823 1.65866 73.2823 2.456V30.848C73.2823 32.8587 73.577 34.28 74.1663 35.112C74.7903 35.944 75.8477 36.36 77.3383 36.36ZM101.256 36.36H109.68C110.374 36.36 110.72 36.9667 110.72 38.18C110.72 39.3933 110.374 40 109.68 40H101.256C98.275 40 96.1603 39.2893 94.9123 37.868C93.6643 36.412 93.0403 34.072 93.0403 30.848V2.456C93.0403 1.65866 93.7336 1.26 95.1203 1.26C96.507 1.26 97.2003 1.65866 97.2003 2.456V30.848C97.2003 32.8587 97.495 34.28 98.0843 35.112C98.7083 35.944 99.7656 36.36 101.256 36.36ZM140.514 8.956V32.564C140.514 35.4413 139.388 37.5387 137.134 38.856C134.916 40.1387 131.969 40.78 128.294 40.78C120.39 40.78 116.438 38.0413 116.438 32.564V8.956C116.438 6.07867 117.548 3.99867 119.766 2.716C122.02 1.39866 124.984 0.739997 128.658 0.739997C136.562 0.739997 140.514 3.47866 140.514 8.956ZM120.598 8.436V33.084C120.598 35.788 123.216 37.14 128.45 37.14C133.72 37.14 136.354 35.788 136.354 33.084V8.436C136.354 5.732 133.72 4.38 128.45 4.38C123.216 4.38 120.598 5.732 120.598 8.436ZM170.835 33.084V27.988C170.835 26.324 170.54 25.1453 169.951 24.452C169.396 23.7587 168.2 23.412 166.363 23.412H162.359C161.665 23.412 161.319 22.8053 161.319 21.592C161.319 20.3787 161.665 19.772 162.359 19.772H166.363C169.413 19.772 171.615 20.396 172.967 21.644C174.319 22.892 174.995 25.0067 174.995 27.988V32.564C174.995 35.4413 173.868 37.5387 171.615 38.856C169.396 40.1387 166.449 40.78 162.775 40.78C154.871 40.78 150.919 38.0413 150.919 32.564V8.956C150.919 6.07867 151.993 3.99867 154.143 2.716C156.327 1.39866 159.187 0.739997 162.723 0.739997C170.384 0.739997 174.215 3.47866 174.215 8.956V11.816C174.215 12.6133 173.521 13.012 172.135 13.012C170.748 13.012 170.055 12.6133 170.055 11.816V8.436C170.055 5.732 167.559 4.38 162.567 4.38C157.575 4.38 155.079 5.732 155.079 8.436V33.084C155.079 35.788 157.696 37.14 162.931 37.14C168.2 37.14 170.835 35.788 170.835 33.084Z" fill="black"/>
</svg>
