<svg width="185" height="71" viewBox="0 0 185 71" fill="none" xmlns="http://www.w3.org/2000/svg">
<path d="M9.36 25.436V50.084C9.36 52.788 11.8907 54.14 16.952 54.14C22.048 54.14 24.596 52.788 24.596 50.084V46.34C24.596 45.5427 25.2893 45.144 26.676 45.144C28.0627 45.144 28.756 45.5427 28.756 46.34V49.564C28.756 55.0413 24.8907 57.78 17.16 57.78C13.5547 57.78 10.66 57.1387 8.476 55.856C6.292 54.5387 5.2 52.4413 5.2 49.564V25.956C5.2 23.0787 6.292 20.9987 8.476 19.716C10.66 18.3987 13.5547 17.74 17.16 17.74C24.8907 17.74 28.756 20.4787 28.756 25.956V29.18C28.756 29.9773 28.0627 30.376 26.676 30.376C25.2893 30.376 24.596 29.9773 24.596 29.18V25.436C24.596 22.732 22.048 21.38 16.952 21.38C11.8907 21.38 9.36 22.732 9.36 25.436ZM62.7023 25.956V56.064C62.7023 56.8613 62.0089 57.26 60.6223 57.26C59.2356 57.26 58.5423 56.8613 58.5423 56.064V41.972H42.7863V56.064C42.7863 56.8613 42.0929 57.26 40.7063 57.26C39.3196 57.26 38.6263 56.8613 38.6263 56.064V25.956C38.6263 24.0147 39.1983 22.42 40.3423 21.172C41.4863 19.8893 42.9423 19.0053 44.7103 18.52C46.4783 18 48.5583 17.74 50.9503 17.74C58.7849 17.74 62.7023 20.4787 62.7023 25.956ZM42.7863 25.436V38.332H58.5423V25.436C58.5423 22.732 55.9076 21.38 50.6383 21.38C45.4036 21.38 42.7863 22.732 42.7863 25.436ZM82.3383 53.36H90.7623C91.4557 53.36 91.8023 53.9667 91.8023 55.18C91.8023 56.3933 91.4557 57 90.7623 57H82.3383C79.357 57 77.2423 56.2893 75.9943 54.868C74.7463 53.412 74.1223 51.072 74.1223 47.848V19.456C74.1223 18.6587 74.8157 18.26 76.2023 18.26C77.589 18.26 78.2823 18.6587 78.2823 19.456V47.848C78.2823 49.8587 78.577 51.28 79.1663 52.112C79.7903 52.944 80.8477 53.36 82.3383 53.36ZM106.256 53.36H114.68C115.374 53.36 115.72 53.9667 115.72 55.18C115.72 56.3933 115.374 57 114.68 57H106.256C103.275 57 101.16 56.2893 99.9123 54.868C98.6643 53.412 98.0403 51.072 98.0403 47.848V19.456C98.0403 18.6587 98.7336 18.26 100.12 18.26C101.507 18.26 102.2 18.6587 102.2 19.456V47.848C102.2 49.8587 102.495 51.28 103.084 52.112C103.708 52.944 104.766 53.36 106.256 53.36ZM145.514 25.956V49.564C145.514 52.4413 144.388 54.5387 142.134 55.856C139.916 57.1387 136.969 57.78 133.294 57.78C125.39 57.78 121.438 55.0413 121.438 49.564V25.956C121.438 23.0787 122.548 20.9987 124.766 19.716C127.02 18.3987 129.984 17.74 133.658 17.74C141.562 17.74 145.514 20.4787 145.514 25.956ZM125.598 25.436V50.084C125.598 52.788 128.216 54.14 133.45 54.14C138.72 54.14 141.354 52.788 141.354 50.084V25.436C141.354 22.732 138.72 21.38 133.45 21.38C128.216 21.38 125.598 22.732 125.598 25.436ZM175.835 50.084V44.988C175.835 43.324 175.54 42.1453 174.951 41.452C174.396 40.7587 173.2 40.412 171.363 40.412H167.359C166.665 40.412 166.319 39.8053 166.319 38.592C166.319 37.3787 166.665 36.772 167.359 36.772H171.363C174.413 36.772 176.615 37.396 177.967 38.644C179.319 39.892 179.995 42.0067 179.995 44.988V49.564C179.995 52.4413 178.868 54.5387 176.615 55.856C174.396 57.1387 171.449 57.78 167.775 57.78C159.871 57.78 155.919 55.0413 155.919 49.564V25.956C155.919 23.0787 156.993 20.9987 159.143 19.716C161.327 18.3987 164.187 17.74 167.723 17.74C175.384 17.74 179.215 20.4787 179.215 25.956V28.816C179.215 29.6133 178.521 30.012 177.135 30.012C175.748 30.012 175.055 29.6133 175.055 28.816V25.436C175.055 22.732 172.559 21.38 167.567 21.38C162.575 21.38 160.079 22.732 160.079 25.436V50.084C160.079 52.788 162.696 54.14 167.931 54.14C173.2 54.14 175.835 52.788 175.835 50.084Z" fill="black"/>
<circle cx="112" cy="11" r="10" fill="black"/>
<circle cx="153" cy="11" r="10" fill="black"/>
<path d="M122 7C125.316 2.47226 134.158 -3.86658 143 7" stroke="black"/>
</svg>
